<?xml version="1.0" standalone="no"?>
<!DOCTYPE svg PUBLIC "-//W3C//DTD SVG 20010904//EN"
 "http://www.w3.org/TR/2001/REC-SVG-20010904/DTD/svg10.dtd">
<svg version="1.0" xmlns="http://www.w3.org/2000/svg"
 width="235.000000pt" height="40.000000pt" viewBox="0 0 235.000000 40.000000"
 preserveAspectRatio="xMidYMid meet">

<g transform="translate(0.000000,40.000000) scale(0.100000,-0.100000)"
fill="#000000" stroke="none">
<path d="M87 314 c-3 -4 -3 -19 0 -35 3 -16 0 -35 -6 -43 -9 -11 -9 -25 0 -60
13 -53 25 -53 20 0 -2 33 -1 34 33 34 19 0 37 4 40 9 8 12 -23 23 -45 16 -14
-5 -19 -1 -19 14 0 37 10 48 40 43 17 -2 30 0 30 6 0 17 -78 30 -93 16z"/>
<path d="M1610 314 c-12 -4 -14 -18 -12 -67 4 -100 7 -107 46 -107 20 0 40 8
51 20 16 18 16 21 1 44 -9 15 -12 27 -6 31 6 3 10 19 10 35 0 23 -6 30 -31 39
-18 6 -35 10 -38 10 -3 -1 -13 -3 -21 -5z m70 -37 c0 -19 -21 -37 -42 -37 -13
0 -18 8 -18 25 0 21 5 25 30 25 18 0 30 -5 30 -13z m0 -86 c0 -19 -18 -31 -46
-31 -8 0 -14 10 -14 25 0 21 5 25 30 25 23 0 30 -5 30 -19z"/>
<path d="M790 296 c-7 -9 -15 -36 -17 -60 -5 -39 -2 -46 21 -61 14 -10 35 -15
47 -12 13 4 23 0 27 -11 5 -11 9 -2 12 28 3 25 4 48 2 53 -5 11 -82 8 -82 -3
0 -5 14 -10 30 -10 34 0 39 -14 11 -30 -46 -24 -69 30 -35 79 12 17 22 21 41
16 18 -4 24 -2 21 7 -7 19 -62 22 -78 4z"/>
<path d="M1408 304 c-5 -4 -8 -20 -8 -35 0 -15 -5 -29 -11 -31 -9 -3 -9 -9 -1
-23 6 -11 13 -32 17 -47 3 -16 11 -28 18 -28 22 0 57 45 57 72 0 21 -6 28 -29
33 -24 5 -30 12 -33 37 -2 16 -6 26 -10 22z m52 -84 c12 -7 12 -12 -4 -29 -25
-27 -36 -26 -36 2 0 36 13 44 40 27z"/>
<path d="M1120 226 c0 -68 2 -74 23 -80 43 -11 77 -7 77 10 0 12 -6 15 -24 10
-46 -11 -56 1 -56 70 0 36 -4 64 -10 64 -6 0 -10 -31 -10 -74z"/>
<path d="M2000 275 c0 -20 -5 -25 -25 -25 -32 0 -60 -41 -51 -75 5 -19 13 -25
35 -25 16 0 31 -6 34 -12 9 -26 15 -1 19 80 3 45 1 82 -4 82 -4 0 -8 -11 -8
-25z m-12 -72 c-4 -34 -48 -48 -48 -16 0 22 18 43 38 43 9 0 12 -9 10 -27z"/>
<path d="M221 280 c-7 -4 -12 -13 -10 -19 3 -8 10 -8 23 2 21 15 9 31 -13 17z"/>
<path d="M921 277 c-6 -8 -8 -17 -5 -20 10 -9 45 13 39 24 -9 13 -21 11 -34
-4z"/>
<path d="M1863 283 c-14 -5 -18 -33 -5 -33 10 0 32 22 32 32 0 9 -8 9 -27 1z"/>
<path d="M340 271 c-45 -8 -75 -54 -48 -75 16 -11 16 -14 1 -28 -10 -11 -13
-25 -9 -42 9 -37 52 -36 68 2 7 15 18 34 26 44 8 9 9 18 4 22 -6 3 -7 20 -2
41 9 41 7 43 -40 36z m17 -38 c5 -13 -43 -30 -54 -19 -3 3 0 13 7 21 15 18 41
16 47 -2z m-22 -93 c-21 -23 -35 -26 -35 -6 0 15 14 24 39 25 11 1 10 -4 -4
-19z"/>
<path d="M2100 270 c-23 -3 -38 -13 -46 -29 -13 -25 -9 -51 9 -51 5 0 2 -9 -7
-19 -20 -22 -18 -49 5 -64 25 -16 48 -1 66 40 14 34 22 119 12 126 -2 2 -20 0
-39 -3z m20 -34 c0 -14 -21 -26 -46 -26 -12 0 -12 4 -4 20 12 23 50 27 50 6z
m-20 -96 c-12 -23 -40 -27 -40 -6 0 14 14 24 38 25 10 1 10 -4 2 -19z"/>
<path d="M588 258 c-15 -5 -30 -18 -33 -29 -8 -25 -22 -24 -30 1 -6 20 -29 27
-39 12 -2 -4 -23 -7 -45 -5 -36 2 -41 -1 -40 -20 1 -12 4 -33 9 -47 7 -24 7
-24 16 9 13 45 34 53 34 12 0 -16 5 -33 10 -36 6 -3 10 3 10 15 0 29 19 62 31
55 5 -4 9 -23 9 -43 l1 -37 14 25 c11 19 14 21 15 8 0 -25 35 -41 59 -28 11 5
27 7 35 4 20 -8 20 -8 0 52 -21 61 -23 64 -56 52z m32 -40 c11 -30 -24 -65
-46 -47 -18 15 -18 28 3 51 21 24 32 23 43 -4z"/>
<path d="M1015 258 c-4 -10 -15 -18 -24 -18 -14 -1 -14 -2 2 -14 9 -7 17 -22
17 -33 0 -10 7 -28 14 -39 14 -18 16 -18 47 13 37 36 32 59 -4 25 -13 -12 -26
-22 -30 -22 -14 0 -7 48 8 54 8 3 15 10 15 15 0 6 -6 8 -14 5 -8 -3 -16 2 -19
13 -4 17 -4 17 -12 1z"/>
<path d="M1294 255 c-48 -20 -60 -73 -23 -99 15 -10 28 -12 45 -6 13 5 30 7
38 4 10 -4 9 8 -6 53 -11 32 -21 59 -21 60 -1 1 -16 -5 -33 -12z m32 -42 c8
-29 -17 -56 -42 -46 -20 7 -17 50 4 62 26 16 31 13 38 -16z"/>
<path d="M2187 242 c-24 -26 -22 -79 2 -92 24 -12 69 2 77 25 9 23 -3 30 -23
13 -31 -26 -40 -28 -53 -13 -10 11 -5 17 24 29 25 10 36 21 36 35 0 27 -40 28
-63 3z m43 -6 c0 -2 -7 -7 -16 -10 -8 -3 -12 -2 -9 4 6 10 25 14 25 6z"/>
<path d="M1730 206 c0 -51 16 -69 29 -33 5 13 22 33 38 45 15 11 25 23 22 27
-8 7 -59 -15 -59 -27 0 -4 -5 -8 -11 -8 -6 0 -9 9 -6 20 3 11 1 20 -4 20 -5 0
-9 -20 -9 -44z"/>
<path d="M220 193 c0 -25 2 -44 4 -42 8 10 13 89 5 89 -5 0 -9 -21 -9 -47z"/>
<path d="M920 201 c0 -22 5 -43 10 -46 6 -4 10 12 10 39 0 25 -4 46 -10 46 -5
0 -10 -18 -10 -39z"/>
<path d="M1860 195 c0 -25 5 -45 10 -45 6 0 10 20 10 45 0 25 -4 45 -10 45 -5
0 -10 -20 -10 -45z"/>
</g>
</svg>
